<svg width="2836" height="1746" xmlns="http://www.w3.org/2000/svg" xml:space="preserve" overflow="hidden"><defs><clipPath id="clip0"><rect x="3175" y="1058" width="2836" height="1746"/></clipPath><clipPath id="clip1"><rect x="3176" y="1058" width="2832" height="1743"/></clipPath><clipPath id="clip2"><rect x="3265" y="1109" width="2696" height="1484"/></clipPath><clipPath id="clip3"><rect x="3265" y="1109" width="2696" height="1484"/></clipPath><clipPath id="clip4"><rect x="3265" y="1109" width="2696" height="1484"/></clipPath><clipPath id="clip5"><rect x="3265" y="1109" width="2696" height="1484"/></clipPath><clipPath id="clip6"><rect x="3176" y="1058" width="2832" height="1743"/></clipPath><clipPath id="clip7"><rect x="3176" y="1058" width="2832" height="1743"/></clipPath><clipPath id="clip8"><rect x="3176" y="1058" width="2832" height="1743"/></clipPath><clipPath id="clip9"><rect x="3176" y="1058" width="2832" height="1743"/></clipPath><clipPath id="clip10"><rect x="3176" y="1058" width="2832" height="1743"/></clipPath><clipPath id="clip11"><rect x="3176" y="1058" width="2832" height="1743"/></clipPath><clipPath id="clip12"><rect x="3176" y="1058" width="2832" height="1743"/></clipPath><clipPath id="clip13"><rect x="3176" y="1058" width="2832" height="1743"/></clipPath><clipPath id="clip14"><rect x="3176" y="1058" width="2832" height="1743"/></clipPath><clipPath id="clip15"><rect x="3176" y="1058" width="2832" height="1743"/></clipPath><clipPath id="clip16"><rect x="3176" y="1058" width="2832" height="1743"/></clipPath><clipPath id="clip17"><rect x="3176" y="1058" width="2832" height="1743"/></clipPath><clipPath id="clip18"><rect x="3176" y="1058" width="2832" height="1743"/></clipPath><clipPath id="clip19"><rect x="3176" y="1058" width="2832" height="1743"/></clipPath><clipPath id="clip20"><rect x="3176" y="1058" width="2832" height="1743"/></clipPath><clipPath id="clip21"><rect x="3176" y="1058" width="2832" height="1743"/></clipPath><clipPath id="clip22"><rect x="3176" y="1058" width="2832" height="1743"/></clipPath><clipPath id="clip23"><rect x="3176" y="1058" width="2832" height="1743"/></clipPath><clipPath id="clip24"><rect x="3176" y="1058" width="2832" height="1743"/></clipPath><clipPath id="clip25"><rect x="3176" y="1058" width="2832" height="1743"/></clipPath><clipPath id="clip26"><rect x="3176" y="1058" width="2832" height="1743"/></clipPath><clipPath id="clip27"><rect x="3176" y="1058" width="2832" height="1743"/></clipPath><clipPath id="clip28"><rect x="3176" y="1058" width="2832" height="1743"/></clipPath><clipPath id="clip29"><rect x="3176" y="1058" width="2832" height="1743"/></clipPath><clipPath id="clip30"><rect x="3176" y="1058" width="2832" height="1743"/></clipPath><clipPath id="clip31"><rect x="3176" y="1058" width="2832" height="1743"/></clipPath><clipPath id="clip32"><rect x="3176" y="1058" width="2832" height="1743"/></clipPath><clipPath id="clip33"><rect x="3176" y="1058" width="2832" height="1743"/></clipPath><clipPath id="clip34"><rect x="3176" y="1058" width="2832" height="1743"/></clipPath><clipPath id="clip35"><rect x="3176" y="1058" width="2832" height="1743"/></clipPath><clipPath id="clip36"><rect x="3176" y="1058" width="2832" height="1743"/></clipPath><clipPath id="clip37"><rect x="3176" y="1058" width="2832" height="1743"/></clipPath><clipPath id="clip38"><rect x="3176" y="1058" width="2832" height="1743"/></clipPath><clipPath id="clip39"><rect x="3176" y="1058" width="2832" height="1743"/></clipPath><clipPath id="clip40"><rect x="3176" y="1058" width="2832" height="1743"/></clipPath><clipPath id="clip41"><rect x="3176" y="1058" width="2832" height="1743"/></clipPath><clipPath id="clip42"><rect x="3176" y="1058" width="2832" height="1743"/></clipPath><clipPath id="clip43"><rect x="3176" y="1058" width="2832" height="1743"/></clipPath><clipPath id="clip44"><rect x="3176" y="1058" width="2832" height="1743"/></clipPath><clipPath id="clip45"><rect x="3176" y="1058" width="2832" height="1743"/></clipPath><clipPath id="clip46"><rect x="3176" y="1058" width="2832" height="1743"/></clipPath><clipPath id="clip47"><rect x="3176" y="1058" width="2832" height="1743"/></clipPath><clipPath id="clip48"><rect x="3176" y="1058" width="2832" height="1743"/></clipPath></defs><g clip-path="url(#clip0)" transform="translate(-3175 -1058)"><rect x="3176" y="1059" width="2833" height="1743" fill="#FFFFFF"/><g clip-path="url(#clip1)"><path d="M3265.5 2405.58 5958.5 2405.58M3265.5 2220.57 5958.5 2220.57M3265.5 2034.57 5958.5 2034.57M3265.5 1849.56 5958.5 1849.56M3265.5 1664.55 5958.5 1664.55M3265.5 1479.55 5958.5 1479.55M3265.5 1294.54 5958.5 1294.54M3265.5 1109.5 5958.5 1109.5" stroke="#D9D9D9" stroke-width="3.4375" stroke-linejoin="round" stroke-miterlimit="10" fill="none"/></g><g clip-path="url(#clip2)"><path d="M3349.11 2114.07 3426.11 2114.07 3426.11 2590 3349.11 2590ZM3888.13 2188.07 3965.13 2188.07 3965.13 2590 3888.13 2590ZM4427.15 2288.07 4504.15 2288.07 4504.15 2590 4427.15 2590ZM4965.16 1551.05 5042.17 1551.05 5042.17 2590 4965.16 2590ZM5504.18 1250.04 5581.18 1250.04 5581.18 2590 5504.18 2590Z" fill="#5B9BD5"/></g><g clip-path="url(#clip3)"><path d="M3447.11 2220.07 3524.12 2220.07 3524.12 2590 3447.11 2590ZM3986.13 1721.06 4063.13 1721.06 4063.13 2590 3986.13 2590ZM4524.15 1767.06 4601.15 1767.06 4601.15 2590 4524.15 2590ZM5063.17 2097.07 5140.17 2097.07 5140.17 2590 5063.17 2590ZM5602.18 1665.05 5678.19 1665.05 5678.19 2590 5602.18 2590Z" fill="#ED7D31"/></g><g clip-path="url(#clip4)"><path d="M3545.12 2100.07 3622.12 2100.07 3622.12 2590 3545.12 2590ZM4083.13 2276.07 4160.14 2276.07 4160.14 2590 4083.13 2590ZM4622.15 2310.08 4699.15 2310.08 4699.15 2590 4622.15 2590ZM5161.17 1706.06 5238.17 1706.06 5238.17 2590 5161.17 2590ZM5699.19 1338.04 5776.19 1338.04 5776.19 2590 5699.19 2590Z" fill="#A5A5A5"/></g><g clip-path="url(#clip5)"><path d="M3643.12 2405.08 3719.12 2405.08 3719.12 2590 3643.12 2590ZM4181.14 2405.08 4258.14 2405.08 4258.14 2590 4181.14 2590ZM4720.15 2405.08 4797.16 2405.08 4797.16 2590 4720.15 2590ZM5258.17 2405.08 5335.17 2405.08 5335.17 2590 5258.17 2590ZM5797.19 2405.08 5874.19 2405.08 5874.19 2590 5797.19 2590Z" fill="#FFC000"/></g><g clip-path="url(#clip6)"><path d="M3265.5 2590.5 5958.5 2590.5" stroke="#D9D9D9" stroke-width="3.4375" stroke-linejoin="round" stroke-miterlimit="10" fill="none" fill-rule="evenodd"/></g><g clip-path="url(#clip7)"><text fill="#404040" font-family="Calibri,Calibri_MSFontService,sans-serif" font-weight="400" font-size="41" transform="matrix(1 0 0 1 3340.99 2082)">2,573</text></g><g clip-path="url(#clip8)"><text fill="#404040" font-family="Calibri,Calibri_MSFontService,sans-serif" font-weight="400" font-size="41" transform="matrix(1 0 0 1 3879.62 2156)">2,172</text></g><g clip-path="url(#clip9)"><text fill="#404040" font-family="Calibri,Calibri_MSFontService,sans-serif" font-weight="400" font-size="41" transform="matrix(1 0 0 1 4418.24 2256)">1,635</text></g><g clip-path="url(#clip10)"><text fill="#404040" font-family="Calibri,Calibri_MSFontService,sans-serif" font-weight="400" font-size="41" transform="matrix(1 0 0 1 4956.87 1519)">5,612</text></g><g clip-path="url(#clip11)"><text fill="#404040" font-family="Calibri,Calibri_MSFontService,sans-serif" font-weight="400" font-size="41" transform="matrix(1 0 0 1 5495.49 1218)">7,237</text></g><g clip-path="url(#clip12)"><text fill="#404040" font-family="Calibri,Calibri_MSFontService,sans-serif" font-weight="400" font-size="41" transform="matrix(1 0 0 1 3438.71 2188)">2,003</text></g><g clip-path="url(#clip13)"><text fill="#404040" font-family="Calibri,Calibri_MSFontService,sans-serif" font-weight="400" font-size="41" transform="matrix(1 0 0 1 3977.34 1689)">4,696</text></g><g clip-path="url(#clip14)"><text fill="#404040" font-family="Calibri,Calibri_MSFontService,sans-serif" font-weight="400" font-size="41" transform="matrix(1 0 0 1 4515.97 1735)">4,449</text></g><g clip-path="url(#clip15)"><text fill="#404040" font-family="Calibri,Calibri_MSFontService,sans-serif" font-weight="400" font-size="41" transform="matrix(1 0 0 1 5054.59 2065)">2,666</text></g><g clip-path="url(#clip16)"><text fill="#404040" font-family="Calibri,Calibri_MSFontService,sans-serif" font-weight="400" font-size="41" transform="matrix(1 0 0 1 5593.22 1633)">5,000</text></g><g clip-path="url(#clip17)"><text fill="#404040" font-family="Calibri,Calibri_MSFontService,sans-serif" font-weight="400" font-size="41" transform="matrix(1 0 0 1 3536.44 2068)">2,649</text></g><g clip-path="url(#clip18)"><text fill="#404040" font-family="Calibri,Calibri_MSFontService,sans-serif" font-weight="400" font-size="41" transform="matrix(1 0 0 1 4075.06 2244)">1,698</text></g><g clip-path="url(#clip19)"><text fill="#404040" font-family="Calibri,Calibri_MSFontService,sans-serif" font-weight="400" font-size="41" transform="matrix(1 0 0 1 4613.69 2279)">1,512</text></g><g clip-path="url(#clip20)"><text fill="#404040" font-family="Calibri,Calibri_MSFontService,sans-serif" font-weight="400" font-size="41" transform="matrix(1 0 0 1 5152.31 1674)">4,779</text></g><g clip-path="url(#clip21)"><text fill="#404040" font-family="Calibri,Calibri_MSFontService,sans-serif" font-weight="400" font-size="41" transform="matrix(1 0 0 1 5690.94 1306)">6,763</text></g><g clip-path="url(#clip22)"><text fill="#404040" font-family="Calibri,Calibri_MSFontService,sans-serif" font-weight="400" font-size="41" transform="matrix(1 0 0 1 3670.65 2373)">1</text></g><g clip-path="url(#clip23)"><text fill="#404040" font-family="Calibri,Calibri_MSFontService,sans-serif" font-weight="400" font-size="41" transform="matrix(1 0 0 1 4209.28 2373)">1</text></g><g clip-path="url(#clip24)"><text fill="#404040" font-family="Calibri,Calibri_MSFontService,sans-serif" font-weight="400" font-size="41" transform="matrix(1 0 0 1 4747.9 2373)">1</text></g><g clip-path="url(#clip25)"><text fill="#404040" font-family="Calibri,Calibri_MSFontService,sans-serif" font-weight="400" font-size="41" transform="matrix(1 0 0 1 5286.53 2373)">1</text></g><g clip-path="url(#clip26)"><text fill="#404040" font-family="Calibri,Calibri_MSFontService,sans-serif" font-weight="400" font-size="41" transform="matrix(1 0 0 1 5825.15 2373)">1</text></g><g clip-path="url(#clip27)"><text fill="#595959" font-family="Calibri,Calibri_MSFontService,sans-serif" font-weight="400" font-size="41" transform="matrix(1 0 0 1 3206.04 2602)">0</text></g><g clip-path="url(#clip28)"><text fill="#595959" font-family="Calibri,Calibri_MSFontService,sans-serif" font-weight="400" font-size="41" transform="matrix(1 0 0 1 3206.04 2417)">1</text></g><g clip-path="url(#clip29)"><text fill="#595959" font-family="Calibri,Calibri_MSFontService,sans-serif" font-weight="400" font-size="41" transform="matrix(1 0 0 1 3206.04 2232)">2</text></g><g clip-path="url(#clip30)"><text fill="#595959" font-family="Calibri,Calibri_MSFontService,sans-serif" font-weight="400" font-size="41" transform="matrix(1 0 0 1 3206.04 2046)">3</text></g><g clip-path="url(#clip31)"><text fill="#595959" font-family="Calibri,Calibri_MSFontService,sans-serif" font-weight="400" font-size="41" transform="matrix(1 0 0 1 3206.04 1861)">4</text></g><g clip-path="url(#clip32)"><text fill="#595959" font-family="Calibri,Calibri_MSFontService,sans-serif" font-weight="400" font-size="41" transform="matrix(1 0 0 1 3206.04 1676)">5</text></g><g clip-path="url(#clip33)"><text fill="#595959" font-family="Calibri,Calibri_MSFontService,sans-serif" font-weight="400" font-size="41" transform="matrix(1 0 0 1 3206.04 1491)">6</text></g><g clip-path="url(#clip34)"><text fill="#595959" font-family="Calibri,Calibri_MSFontService,sans-serif" font-weight="400" font-size="41" transform="matrix(1 0 0 1 3206.04 1306)">7</text></g><g clip-path="url(#clip35)"><text fill="#595959" font-family="Calibri,Calibri_MSFontService,sans-serif" font-weight="400" font-size="41" transform="matrix(1 0 0 1 3206.04 1121)">8</text></g><g clip-path="url(#clip36)"><text fill="#595959" font-family="Calibri,Calibri_MSFontService,sans-serif" font-weight="400" font-size="41" transform="matrix(1 0 0 1 3438.61 2656)">Binarytrees</text></g><g clip-path="url(#clip37)"><text fill="#595959" font-family="Calibri,Calibri_MSFontService,sans-serif" font-weight="400" font-size="41" transform="matrix(1 0 0 1 3892.41 2656)">Sieve of Eratosthenes</text></g><g clip-path="url(#clip38)"><text fill="#595959" font-family="Calibri,Calibri_MSFontService,sans-serif" font-weight="400" font-size="41" transform="matrix(1 0 0 1 4532.96 2656)">Fibonacci</text></g><g clip-path="url(#clip39)"><text fill="#595959" font-family="Calibri,Calibri_MSFontService,sans-serif" font-weight="400" font-size="41" transform="matrix(1 0 0 1 5050.39 2656)">Mandelbrot</text></g><g clip-path="url(#clip40)"><text fill="#595959" font-family="Calibri,Calibri_MSFontService,sans-serif" font-weight="400" font-size="41" transform="matrix(1 0 0 1 5627.12 2656)">N-Body</text></g><g clip-path="url(#clip41)"><rect x="4024" y="2724" width="23" height="23" fill="#5B9BD5"/></g><g clip-path="url(#clip42)"><text fill="#595959" font-family="Calibri,Calibri_MSFontService,sans-serif" font-weight="400" font-size="41" transform="matrix(1 0 0 1 4056.42 2747)">Debug BACIL</text></g><g clip-path="url(#clip43)"><rect x="4325" y="2724" width="23" height="23" fill="#ED7D31"/></g><g clip-path="url(#clip44)"><text fill="#595959" font-family="Calibri,Calibri_MSFontService,sans-serif" font-weight="400" font-size="41" transform="matrix(1 0 0 1 4357.45 2747)">Debug .NET</text></g><g clip-path="url(#clip45)"><rect x="4607" y="2724" width="23" height="23" fill="#A5A5A5"/></g><g clip-path="url(#clip46)"><text fill="#595959" font-family="Calibri,Calibri_MSFontService,sans-serif" font-weight="400" font-size="41" transform="matrix(1 0 0 1 4639.69 2747)">Release BACIL</text></g><g clip-path="url(#clip47)"><rect x="4929" y="2724" width="23" height="23" fill="#FFC000"/></g><g clip-path="url(#clip48)"><text fill="#595959" font-family="Calibri,Calibri_MSFontService,sans-serif" font-weight="400" font-size="41" transform="matrix(1 0 0 1 4961.39 2747)">Release .NET</text></g><rect x="3176.5" y="1059.5" width="2833" height="1743" stroke="#D9D9D9" stroke-width="3.4375" stroke-linejoin="round" stroke-miterlimit="10" fill="none"/></g></svg>