<svg width="2836" height="1746" xmlns="http://www.w3.org/2000/svg" xml:space="preserve" overflow="hidden"><defs><clipPath id="clip0"><rect x="229" y="1054" width="2836" height="1746"/></clipPath><clipPath id="clip1"><rect x="230" y="1055" width="2832" height="1743"/></clipPath><clipPath id="clip2"><rect x="361" y="1105" width="2654" height="1485"/></clipPath><clipPath id="clip3"><rect x="361" y="1105" width="2654" height="1485"/></clipPath><clipPath id="clip4"><rect x="361" y="1105" width="2654" height="1485"/></clipPath><clipPath id="clip5"><rect x="361" y="1105" width="2654" height="1485"/></clipPath><clipPath id="clip6"><rect x="361" y="1105" width="2654" height="1485"/></clipPath><clipPath id="clip7"><rect x="230" y="1055" width="2832" height="1743"/></clipPath><clipPath id="clip8"><rect x="230" y="1055" width="2832" height="1743"/></clipPath><clipPath id="clip9"><rect x="230" y="1055" width="2832" height="1743"/></clipPath><clipPath id="clip10"><rect x="230" y="1055" width="2832" height="1743"/></clipPath><clipPath id="clip11"><rect x="230" y="1055" width="2832" height="1743"/></clipPath><clipPath id="clip12"><rect x="230" y="1055" width="2832" height="1743"/></clipPath><clipPath id="clip13"><rect x="230" y="1055" width="2832" height="1743"/></clipPath><clipPath id="clip14"><rect x="230" y="1055" width="2832" height="1743"/></clipPath><clipPath id="clip15"><rect x="230" y="1055" width="2832" height="1743"/></clipPath><clipPath id="clip16"><rect x="230" y="1055" width="2832" height="1743"/></clipPath><clipPath id="clip17"><rect x="230" y="1055" width="2832" height="1743"/></clipPath><clipPath id="clip18"><rect x="230" y="1055" width="2832" height="1743"/></clipPath><clipPath id="clip19"><rect x="230" y="1055" width="2832" height="1743"/></clipPath><clipPath id="clip20"><rect x="230" y="1055" width="2832" height="1743"/></clipPath><clipPath id="clip21"><rect x="230" y="1055" width="2832" height="1743"/></clipPath><clipPath id="clip22"><rect x="230" y="1055" width="2832" height="1743"/></clipPath><clipPath id="clip23"><rect x="230" y="1055" width="2832" height="1743"/></clipPath><clipPath id="clip24"><rect x="230" y="1055" width="2832" height="1743"/></clipPath><clipPath id="clip25"><rect x="230" y="1055" width="2832" height="1743"/></clipPath><clipPath id="clip26"><rect x="230" y="1055" width="2832" height="1743"/></clipPath><clipPath id="clip27"><rect x="230" y="1055" width="2832" height="1743"/></clipPath><clipPath id="clip28"><rect x="230" y="1055" width="2832" height="1743"/></clipPath><clipPath id="clip29"><rect x="230" y="1055" width="2832" height="1743"/></clipPath><clipPath id="clip30"><rect x="230" y="1055" width="2832" height="1743"/></clipPath><clipPath id="clip31"><rect x="230" y="1055" width="2832" height="1743"/></clipPath><clipPath id="clip32"><rect x="230" y="1055" width="2832" height="1743"/></clipPath><clipPath id="clip33"><rect x="230" y="1055" width="2832" height="1743"/></clipPath><clipPath id="clip34"><rect x="230" y="1055" width="2832" height="1743"/></clipPath><clipPath id="clip35"><rect x="230" y="1055" width="2832" height="1743"/></clipPath><clipPath id="clip36"><rect x="230" y="1055" width="2832" height="1743"/></clipPath><clipPath id="clip37"><rect x="230" y="1055" width="2832" height="1743"/></clipPath><clipPath id="clip38"><rect x="230" y="1055" width="2832" height="1743"/></clipPath><clipPath id="clip39"><rect x="230" y="1055" width="2832" height="1743"/></clipPath><clipPath id="clip40"><rect x="230" y="1055" width="2832" height="1743"/></clipPath><clipPath id="clip41"><rect x="230" y="1055" width="2832" height="1743"/></clipPath><clipPath id="clip42"><rect x="230" y="1055" width="2832" height="1743"/></clipPath><clipPath id="clip43"><rect x="230" y="1055" width="2832" height="1743"/></clipPath><clipPath id="clip44"><rect x="230" y="1055" width="2832" height="1743"/></clipPath><clipPath id="clip45"><rect x="230" y="1055" width="2832" height="1743"/></clipPath><clipPath id="clip46"><rect x="230" y="1055" width="2832" height="1743"/></clipPath><clipPath id="clip47"><rect x="230" y="1055" width="2832" height="1743"/></clipPath><clipPath id="clip48"><rect x="230" y="1055" width="2832" height="1743"/></clipPath><clipPath id="clip49"><rect x="230" y="1055" width="2832" height="1743"/></clipPath><clipPath id="clip50"><rect x="230" y="1055" width="2832" height="1743"/></clipPath><clipPath id="clip51"><rect x="230" y="1055" width="2832" height="1743"/></clipPath><clipPath id="clip52"><rect x="230" y="1055" width="2832" height="1743"/></clipPath><clipPath id="clip53"><rect x="230" y="1055" width="2832" height="1743"/></clipPath><clipPath id="clip54"><rect x="230" y="1055" width="2832" height="1743"/></clipPath><clipPath id="clip55"><rect x="230" y="1055" width="2832" height="1743"/></clipPath><clipPath id="clip56"><rect x="230" y="1055" width="2832" height="1743"/></clipPath><clipPath id="clip57"><rect x="230" y="1055" width="2832" height="1743"/></clipPath><clipPath id="clip58"><rect x="230" y="1055" width="2832" height="1743"/></clipPath></defs><g clip-path="url(#clip0)" transform="translate(-229 -1054)"><rect x="230" y="1055" width="2833" height="1743" fill="#FFFFFF"/><g clip-path="url(#clip1)"><path d="M361.5 2290.58 3012.5 2290.58M361.5 1994.57 3012.5 1994.57M361.5 1698.56 3012.5 1698.56M361.5 1401.55 3012.5 1401.55M361.5 1105.5 3012.5 1105.5" stroke="#D9D9D9" stroke-width="3.4375" stroke-linejoin="round" stroke-miterlimit="10" fill="none"/></g><g clip-path="url(#clip2)"><path d="M431.014 2572.08 495.016 2572.08 495.016 2587 431.014 2587ZM962.032 2574.08 1026.03 2574.08 1026.03 2587 962.032 2587ZM1492.05 2577.08 1556.05 2577.08 1556.05 2587 1492.05 2587ZM2022.07 2554.08 2086.07 2554.08 2086.07 2587 2022.07 2587ZM2552.08 2544.08 2616.09 2544.08 2616.09 2587 2552.08 2587Z" fill="#5B9BD5"/></g><g clip-path="url(#clip3)"><path d="M513.017 2575.08 577.019 2575.08 577.019 2587 513.017 2587ZM1043.03 2559.08 1107.04 2559.08 1107.04 2587 1043.03 2587ZM1573.05 2561.08 1637.05 2561.08 1637.05 2587 1573.05 2587ZM2103.07 2571.08 2168.07 2571.08 2168.07 2587 2103.07 2587ZM2634.09 2557.08 2698.09 2557.08 2698.09 2587 2634.09 2587Z" fill="#ED7D31"/></g><g clip-path="url(#clip4)"><path d="M594.019 2571.08 658.022 2571.08 658.022 2587 594.019 2587ZM1124.04 2577.08 1188.04 2577.08 1188.04 2587 1124.04 2587ZM1655.05 2578.08 1719.06 2578.08 1719.06 2587 1655.05 2587ZM2185.07 2559.08 2249.07 2559.08 2249.07 2587 2185.07 2587ZM2715.09 2547.08 2779.09 2547.08 2779.09 2587 2715.09 2587Z" fill="#A5A5A5"/></g><g clip-path="url(#clip5)"><path d="M676.022 2581.08 740.024 2581.08 740.024 2587 676.022 2587ZM1206.04 2581.08 1270.04 2581.08 1270.04 2587 1206.04 2587ZM1736.06 2581.08 1800.06 2581.08 1800.06 2587 1736.06 2587ZM2266.07 2581.08 2330.08 2581.08 2330.08 2587 2266.07 2587ZM2797.09 2581.08 2861.09 2581.08 2861.09 2587 2797.09 2587Z" fill="#FFC000"/></g><g clip-path="url(#clip6)"><path d="M757.025 2445.08 821.027 2445.08 821.027 2587 757.025 2587ZM1287.04 1248.04 1351.04 1248.04 1351.04 2587 1287.04 2587ZM1817.06 2362.08 1882.06 2362.08 1882.06 2587 1817.06 2587ZM2348.08 2362.08 2412.08 2362.08 2412.08 2587 2348.08 2587ZM2878.09 1437.05 2942.1 1437.05 2942.1 2587 2878.09 2587Z" fill="#4472C4"/></g><g clip-path="url(#clip7)"><path d="M361.5 2586.5 3012.5 2586.5" stroke="#D9D9D9" stroke-width="3.4375" stroke-linejoin="round" stroke-miterlimit="10" fill="none" fill-rule="evenodd"/></g><g clip-path="url(#clip8)"><text fill="#404040" font-family="Calibri,Calibri_MSFontService,sans-serif" font-weight="400" font-size="41" transform="matrix(1 0 0 1 416.396 2540)">2,573</text></g><g clip-path="url(#clip9)"><text fill="#404040" font-family="Calibri,Calibri_MSFontService,sans-serif" font-weight="400" font-size="41" transform="matrix(1 0 0 1 946.661 2542)">2,172</text></g><g clip-path="url(#clip10)"><text fill="#404040" font-family="Calibri,Calibri_MSFontService,sans-serif" font-weight="400" font-size="41" transform="matrix(1 0 0 1 1476.93 2545)">1,635</text></g><g clip-path="url(#clip11)"><text fill="#404040" font-family="Calibri,Calibri_MSFontService,sans-serif" font-weight="400" font-size="41" transform="matrix(1 0 0 1 2007.19 2522)">5,612</text></g><g clip-path="url(#clip12)"><text fill="#404040" font-family="Calibri,Calibri_MSFontService,sans-serif" font-weight="400" font-size="41" transform="matrix(1 0 0 1 2537.46 2512)">7,237</text></g><g clip-path="url(#clip13)"><path d="M544.5 2575.5 544.5 2488.5" stroke="#A6A6A6" stroke-width="3.4375" stroke-linejoin="round" stroke-miterlimit="10" fill="none"/></g><g clip-path="url(#clip14)"><path d="M1076.5 2559.5 1075.5 2485.5" stroke="#A6A6A6" stroke-width="3.4375" stroke-linejoin="round" stroke-miterlimit="10" fill="none"/></g><g clip-path="url(#clip15)"><path d="M1606.5 2560.5 1605.5 2478.5" stroke="#A6A6A6" stroke-width="3.4375" stroke-linejoin="round" stroke-miterlimit="10" fill="none"/></g><g clip-path="url(#clip16)"><path d="M2136.5 2571.5 2135.5 2474.5" stroke="#A6A6A6" stroke-width="3.4375" stroke-linejoin="round" stroke-miterlimit="10" fill="none"/></g><g clip-path="url(#clip17)"><path d="M2666.5 2557.5 2665.5 2474.5" stroke="#A6A6A6" stroke-width="3.4375" stroke-linejoin="round" stroke-miterlimit="10" fill="none"/></g><g clip-path="url(#clip18)"><text fill="#404040" font-family="Calibri,Calibri_MSFontService,sans-serif" font-weight="400" font-size="41" transform="matrix(1 0 0 1 497.827 2470)">2,003</text></g><g clip-path="url(#clip19)"><text fill="#404040" font-family="Calibri,Calibri_MSFontService,sans-serif" font-weight="400" font-size="41" transform="matrix(1 0 0 1 1028.09 2468)">4,696</text></g><g clip-path="url(#clip20)"><text fill="#404040" font-family="Calibri,Calibri_MSFontService,sans-serif" font-weight="400" font-size="41" transform="matrix(1 0 0 1 1558.36 2460)">4,449</text></g><g clip-path="url(#clip21)"><text fill="#404040" font-family="Calibri,Calibri_MSFontService,sans-serif" font-weight="400" font-size="41" transform="matrix(1 0 0 1 2088.62 2457)">2,666</text></g><g clip-path="url(#clip22)"><text fill="#404040" font-family="Calibri,Calibri_MSFontService,sans-serif" font-weight="400" font-size="41" transform="matrix(1 0 0 1 2618.89 2457)">5,000</text></g><g clip-path="url(#clip23)"><text fill="#404040" font-family="Calibri,Calibri_MSFontService,sans-serif" font-weight="400" font-size="41" transform="matrix(1 0 0 1 579.258 2539)">2,649</text></g><g clip-path="url(#clip24)"><text fill="#404040" font-family="Calibri,Calibri_MSFontService,sans-serif" font-weight="400" font-size="41" transform="matrix(1 0 0 1 1109.52 2545)">1,698</text></g><g clip-path="url(#clip25)"><text fill="#404040" font-family="Calibri,Calibri_MSFontService,sans-serif" font-weight="400" font-size="41" transform="matrix(1 0 0 1 1639.79 2546)">1,512</text></g><g clip-path="url(#clip26)"><text fill="#404040" font-family="Calibri,Calibri_MSFontService,sans-serif" font-weight="400" font-size="41" transform="matrix(1 0 0 1 2170.05 2527)">4,779</text></g><g clip-path="url(#clip27)"><text fill="#404040" font-family="Calibri,Calibri_MSFontService,sans-serif" font-weight="400" font-size="41" transform="matrix(1 0 0 1 2700.32 2515)">6,763</text></g><g clip-path="url(#clip28)"><text fill="#404040" font-family="Calibri,Calibri_MSFontService,sans-serif" font-weight="400" font-size="41" transform="matrix(1 0 0 1 697.185 2549)">1</text></g><g clip-path="url(#clip29)"><text fill="#404040" font-family="Calibri,Calibri_MSFontService,sans-serif" font-weight="400" font-size="41" transform="matrix(1 0 0 1 1227.45 2549)">1</text></g><g clip-path="url(#clip30)"><text fill="#404040" font-family="Calibri,Calibri_MSFontService,sans-serif" font-weight="400" font-size="41" transform="matrix(1 0 0 1 1757.71 2549)">1</text></g><g clip-path="url(#clip31)"><text fill="#404040" font-family="Calibri,Calibri_MSFontService,sans-serif" font-weight="400" font-size="41" transform="matrix(1 0 0 1 2287.98 2549)">1</text></g><g clip-path="url(#clip32)"><text fill="#404040" font-family="Calibri,Calibri_MSFontService,sans-serif" font-weight="400" font-size="41" transform="matrix(1 0 0 1 2818.24 2549)">1</text></g><g clip-path="url(#clip33)"><text fill="#404040" font-family="Calibri,Calibri_MSFontService,sans-serif" font-weight="400" font-size="41" transform="matrix(1 0 0 1 768.166 2413)">24</text></g><g clip-path="url(#clip34)"><text fill="#404040" font-family="Calibri,Calibri_MSFontService,sans-serif" font-weight="400" font-size="41" transform="matrix(1 0 0 1 1287.98 1216)">226</text></g><g clip-path="url(#clip35)"><text fill="#404040" font-family="Calibri,Calibri_MSFontService,sans-serif" font-weight="400" font-size="41" transform="matrix(1 0 0 1 1828.7 2330)">38</text></g><g clip-path="url(#clip36)"><text fill="#404040" font-family="Calibri,Calibri_MSFontService,sans-serif" font-weight="400" font-size="41" transform="matrix(1 0 0 1 2358.96 2330)">38</text></g><g clip-path="url(#clip37)"><text fill="#404040" font-family="Calibri,Calibri_MSFontService,sans-serif" font-weight="400" font-size="41" transform="matrix(1 0 0 1 2878.78 1387)">194</text></g><g clip-path="url(#clip38)"><text fill="#595959" font-family="Calibri,Calibri_MSFontService,sans-serif" font-weight="400" font-size="41" transform="matrix(1 0 0 1 301.904 2599)">0</text></g><g clip-path="url(#clip39)"><text fill="#595959" font-family="Calibri,Calibri_MSFontService,sans-serif" font-weight="400" font-size="41" transform="matrix(1 0 0 1 281.004 2302)">50</text></g><g clip-path="url(#clip40)"><text fill="#595959" font-family="Calibri,Calibri_MSFontService,sans-serif" font-weight="400" font-size="41" transform="matrix(1 0 0 1 260.104 2006)">100</text></g><g clip-path="url(#clip41)"><text fill="#595959" font-family="Calibri,Calibri_MSFontService,sans-serif" font-weight="400" font-size="41" transform="matrix(1 0 0 1 260.104 1710)">150</text></g><g clip-path="url(#clip42)"><text fill="#595959" font-family="Calibri,Calibri_MSFontService,sans-serif" font-weight="400" font-size="41" transform="matrix(1 0 0 1 260.104 1414)">200</text></g><g clip-path="url(#clip43)"><text fill="#595959" font-family="Calibri,Calibri_MSFontService,sans-serif" font-weight="400" font-size="41" transform="matrix(1 0 0 1 260.104 1117)">250</text></g><g clip-path="url(#clip44)"><text fill="#595959" font-family="Calibri,Calibri_MSFontService,sans-serif" font-weight="400" font-size="41" transform="matrix(1 0 0 1 530.297 2652)">Binarytrees</text></g><g clip-path="url(#clip45)"><text fill="#595959" font-family="Calibri,Calibri_MSFontService,sans-serif" font-weight="400" font-size="41" transform="matrix(1 0 0 1 975.735 2652)">Sieve of Eratosthenes</text></g><g clip-path="url(#clip46)"><text fill="#595959" font-family="Calibri,Calibri_MSFontService,sans-serif" font-weight="400" font-size="41" transform="matrix(1 0 0 1 1607.92 2652)">Fibonacci</text></g><g clip-path="url(#clip47)"><text fill="#595959" font-family="Calibri,Calibri_MSFontService,sans-serif" font-weight="400" font-size="41" transform="matrix(1 0 0 1 2116.99 2652)">Mandelbrot</text></g><g clip-path="url(#clip48)"><text fill="#595959" font-family="Calibri,Calibri_MSFontService,sans-serif" font-weight="400" font-size="41" transform="matrix(1 0 0 1 2685.37 2652)">N-Body</text></g><g clip-path="url(#clip49)"><rect x="947" y="2721" width="23.0001" height="22" fill="#5B9BD5"/></g><g clip-path="url(#clip50)"><text fill="#595959" font-family="Calibri,Calibri_MSFontService,sans-serif" font-weight="400" font-size="41" transform="matrix(1 0 0 1 979.634 2744)">Debug BACIL</text></g><g clip-path="url(#clip51)"><rect x="1249" y="2721" width="22" height="22" fill="#ED7D31"/></g><g clip-path="url(#clip52)"><text fill="#595959" font-family="Calibri,Calibri_MSFontService,sans-serif" font-weight="400" font-size="41" transform="matrix(1 0 0 1 1281.01 2744)">Debug .NET</text></g><g clip-path="url(#clip53)"><rect x="1531" y="2721" width="23" height="22" fill="#A5A5A5"/></g><g clip-path="url(#clip54)"><text fill="#595959" font-family="Calibri,Calibri_MSFontService,sans-serif" font-weight="400" font-size="41" transform="matrix(1 0 0 1 1563.59 2744)">Release BACIL</text></g><g clip-path="url(#clip55)"><rect x="1853" y="2721" width="22.9996" height="22" fill="#FFC000"/></g><g clip-path="url(#clip56)"><text fill="#595959" font-family="Calibri,Calibri_MSFontService,sans-serif" font-weight="400" font-size="41" transform="matrix(1 0 0 1 1885.64 2744)">Release .NET</text></g><g clip-path="url(#clip57)"><rect x="2157" y="2721" width="22" height="22" fill="#4472C4"/></g><g clip-path="url(#clip58)"><text fill="#595959" font-family="Calibri,Calibri_MSFontService,sans-serif" font-weight="400" font-size="41" transform="matrix(1 0 0 1 2188.9 2744)">Hagmüller</text></g><rect x="230.5" y="1055.5" width="2833" height="1743" stroke="#D9D9D9" stroke-width="3.4375" stroke-linejoin="round" stroke-miterlimit="10" fill="none"/></g></svg>