<svg width="2960" height="2083" xmlns="http://www.w3.org/2000/svg" xml:space="preserve" overflow="hidden"><defs><clipPath id="clip0"><rect x="1401" y="112" width="2960" height="2083"/></clipPath><clipPath id="clip1"><rect x="1402" y="113" width="2956" height="2080"/></clipPath><clipPath id="clip2"><rect x="1768" y="163" width="2533" height="1927"/></clipPath><clipPath id="clip3"><rect x="1402" y="113" width="2956" height="2080"/></clipPath><clipPath id="clip4"><rect x="1402" y="113" width="2956" height="2080"/></clipPath><clipPath id="clip5"><rect x="1402" y="113" width="2956" height="2080"/></clipPath><clipPath id="clip6"><rect x="1402" y="113" width="2956" height="2080"/></clipPath><clipPath id="clip7"><rect x="1402" y="113" width="2956" height="2080"/></clipPath><clipPath id="clip8"><rect x="1402" y="113" width="2956" height="2080"/></clipPath><clipPath id="clip9"><rect x="1402" y="113" width="2956" height="2080"/></clipPath><clipPath id="clip10"><rect x="1402" y="113" width="2956" height="2080"/></clipPath><clipPath id="clip11"><rect x="1402" y="113" width="2956" height="2080"/></clipPath><clipPath id="clip12"><rect x="1402" y="113" width="2956" height="2080"/></clipPath><clipPath id="clip13"><rect x="1402" y="113" width="2956" height="2080"/></clipPath><clipPath id="clip14"><rect x="1402" y="113" width="2956" height="2080"/></clipPath><clipPath id="clip15"><rect x="1402" y="113" width="2956" height="2080"/></clipPath><clipPath id="clip16"><rect x="1402" y="113" width="2956" height="2080"/></clipPath><clipPath id="clip17"><rect x="1402" y="113" width="2956" height="2080"/></clipPath><clipPath id="clip18"><rect x="1402" y="113" width="2956" height="2080"/></clipPath><clipPath id="clip19"><rect x="1402" y="113" width="2956" height="2080"/></clipPath><clipPath id="clip20"><rect x="1402" y="113" width="2956" height="2080"/></clipPath><clipPath id="clip21"><rect x="1402" y="113" width="2956" height="2080"/></clipPath><clipPath id="clip22"><rect x="1402" y="113" width="2956" height="2080"/></clipPath><clipPath id="clip23"><rect x="1402" y="113" width="2956" height="2080"/></clipPath><clipPath id="clip24"><rect x="1402" y="113" width="2956" height="2080"/></clipPath><clipPath id="clip25"><rect x="1402" y="113" width="2956" height="2080"/></clipPath><clipPath id="clip26"><rect x="1402" y="113" width="2956" height="2080"/></clipPath><clipPath id="clip27"><rect x="1402" y="113" width="2956" height="2080"/></clipPath><clipPath id="clip28"><rect x="1402" y="113" width="2956" height="2080"/></clipPath><clipPath id="clip29"><rect x="1402" y="113" width="2956" height="2080"/></clipPath><clipPath id="clip30"><rect x="1402" y="113" width="2956" height="2080"/></clipPath><clipPath id="clip31"><rect x="1402" y="113" width="2956" height="2080"/></clipPath><clipPath id="clip32"><rect x="1402" y="113" width="2956" height="2080"/></clipPath><clipPath id="clip33"><rect x="1402" y="113" width="2956" height="2080"/></clipPath><clipPath id="clip34"><rect x="1402" y="113" width="2956" height="2080"/></clipPath><clipPath id="clip35"><rect x="1402" y="113" width="2956" height="2080"/></clipPath><clipPath id="clip36"><rect x="1402" y="113" width="2956" height="2080"/></clipPath><clipPath id="clip37"><rect x="1402" y="113" width="2956" height="2080"/></clipPath><clipPath id="clip38"><rect x="1402" y="113" width="2956" height="2080"/></clipPath><clipPath id="clip39"><rect x="1402" y="113" width="2956" height="2080"/></clipPath><clipPath id="clip40"><rect x="1402" y="113" width="2956" height="2080"/></clipPath><clipPath id="clip41"><rect x="1402" y="113" width="2956" height="2080"/></clipPath><clipPath id="clip42"><rect x="1402" y="113" width="2956" height="2080"/></clipPath><clipPath id="clip43"><rect x="1402" y="113" width="2956" height="2080"/></clipPath><clipPath id="clip44"><rect x="1402" y="113" width="2956" height="2080"/></clipPath><clipPath id="clip45"><rect x="1402" y="113" width="2956" height="2080"/></clipPath><clipPath id="clip46"><rect x="1402" y="113" width="2956" height="2080"/></clipPath><clipPath id="clip47"><rect x="1402" y="113" width="2956" height="2080"/></clipPath><clipPath id="clip48"><rect x="1402" y="113" width="2956" height="2080"/></clipPath></defs><g clip-path="url(#clip0)" transform="translate(-1401 -112)"><rect x="1402" y="113" width="2957" height="2080" fill="#FFFFFF"/><g clip-path="url(#clip1)"><path d="M2189.57 163.5 2189.57 2086.5M2611.59 163.5 2611.59 2086.5M3032.6 163.5 3032.6 2086.5M3454.61 163.5 3454.61 2086.5M3876.63 163.5 3876.63 2086.5M4297.5 163.5 4297.5 2086.5" stroke="#D9D9D9" stroke-width="3.4375" stroke-linejoin="round" stroke-miterlimit="10" fill="none"/></g><g clip-path="url(#clip2)"><path d="M2205.07 2054.07 1768 2054.07 1768 2018.07 2205.07 2018.07ZM2242.07 1953.06 1768 1953.06 1768 1917.06 2242.07 1917.06ZM2262.07 1852.06 1768 1852.06 1768 1816.06 2262.07 1816.06ZM2326.08 1750.06 1768 1750.06 1768 1715.06 2326.08 1715.06ZM2370.08 1649.05 1768 1649.05 1768 1613.05 2370.08 1613.05ZM2409.08 1548.05 1768 1548.05 1768 1512.05 2409.08 1512.05ZM2416.08 1447.05 1768 1447.05 1768 1411.05 2416.08 1411.05ZM2494.08 1346.04 1768 1346.04 1768 1310.04 2494.08 1310.04ZM2502.08 1244.04 1768 1244.04 1768 1209.04 2502.08 1209.04ZM2535.08 1143.04 1768 1143.04 1768 1107.04 2535.08 1107.04ZM2638.09 1042.03 1768 1042.03 1768 1006.03 2638.09 1006.03ZM2759.09 941.031 1768 941.031 1768 905.03 2759.09 905.03ZM2761.09 840.028 1768 840.028 1768 804.026 2761.09 804.026ZM2862.09 738.024 1768 738.024 1768 703.023 2862.09 703.023ZM3036.1 637.021 1768 637.021 1768 601.02 3036.1 601.02ZM3100.1 536.018 1768 536.018 1768 500.016 3100.1 500.016ZM3207.11 435.014 1768 435.014 1768 399.013 3207.11 399.013ZM3708.12 334.011 1768 334.011 1768 298.01 3708.12 298.01ZM3865.13 232.008 1768 232.008 1768 197.006 3865.13 197.006Z" fill="#5B9BD5"/></g><g clip-path="url(#clip3)"><path d="M0 0 0.000360892 1923" stroke="#D9D9D9" stroke-width="3.4375" stroke-linejoin="round" stroke-miterlimit="10" fill="none" fill-rule="evenodd" transform="matrix(1 0 0 -1 1768.5 2086.5)"/></g><g clip-path="url(#clip4)"><text fill="#404040" font-family="Calibri,Calibri_MSFontService,sans-serif" font-weight="400" font-size="41" transform="matrix(1 0 0 1 2232.27 2050)">1,036</text></g><g clip-path="url(#clip5)"><text fill="#404040" font-family="Calibri,Calibri_MSFontService,sans-serif" font-weight="400" font-size="41" transform="matrix(1 0 0 1 2270.05 1949)">1,125</text></g><g clip-path="url(#clip6)"><text fill="#404040" font-family="Calibri,Calibri_MSFontService,sans-serif" font-weight="400" font-size="41" transform="matrix(1 0 0 1 2289.87 1848)">1,172</text></g><g clip-path="url(#clip7)"><text fill="#404040" font-family="Calibri,Calibri_MSFontService,sans-serif" font-weight="400" font-size="41" transform="matrix(1 0 0 1 2353.18 1746)">1,322</text></g><g clip-path="url(#clip8)"><text fill="#404040" font-family="Calibri,Calibri_MSFontService,sans-serif" font-weight="400" font-size="41" transform="matrix(1 0 0 1 2397.53 1645)">1,428</text></g><g clip-path="url(#clip9)"><text fill="#404040" font-family="Calibri,Calibri_MSFontService,sans-serif" font-weight="400" font-size="41" transform="matrix(1 0 0 1 2436.14 1544)">1,519</text></g><g clip-path="url(#clip10)"><text fill="#404040" font-family="Calibri,Calibri_MSFontService,sans-serif" font-weight="400" font-size="41" transform="matrix(1 0 0 1 2443.89 1443)">1,538</text></g><g clip-path="url(#clip11)"><text fill="#404040" font-family="Calibri,Calibri_MSFontService,sans-serif" font-weight="400" font-size="41" transform="matrix(1 0 0 1 2521.66 1342)">1,722</text></g><g clip-path="url(#clip12)"><text fill="#404040" font-family="Calibri,Calibri_MSFontService,sans-serif" font-weight="400" font-size="41" transform="matrix(1 0 0 1 2529.71 1240)">1,741</text></g><g clip-path="url(#clip13)"><text fill="#404040" font-family="Calibri,Calibri_MSFontService,sans-serif" font-weight="400" font-size="41" transform="matrix(1 0 0 1 2562.21 1139)">1,818</text></g><g clip-path="url(#clip14)"><text fill="#404040" font-family="Calibri,Calibri_MSFontService,sans-serif" font-weight="400" font-size="41" transform="matrix(1 0 0 1 2665.26 1038)">2,063</text></g><g clip-path="url(#clip15)"><text fill="#404040" font-family="Calibri,Calibri_MSFontService,sans-serif" font-weight="400" font-size="41" transform="matrix(1 0 0 1 2786.79 937)">2,351</text></g><g clip-path="url(#clip16)"><text fill="#404040" font-family="Calibri,Calibri_MSFontService,sans-serif" font-weight="400" font-size="41" transform="matrix(1 0 0 1 2788.56 836)">2,355</text></g><g clip-path="url(#clip17)"><text fill="#404040" font-family="Calibri,Calibri_MSFontService,sans-serif" font-weight="400" font-size="41" transform="matrix(1 0 0 1 2889.66 734)">2,595</text></g><g clip-path="url(#clip18)"><text fill="#404040" font-family="Calibri,Calibri_MSFontService,sans-serif" font-weight="400" font-size="41" transform="matrix(1 0 0 1 3063.74 633)">3,008</text></g><g clip-path="url(#clip19)"><text fill="#404040" font-family="Calibri,Calibri_MSFontService,sans-serif" font-weight="400" font-size="41" transform="matrix(1 0 0 1 3127.13 532)">3,158</text></g><g clip-path="url(#clip20)"><text fill="#404040" font-family="Calibri,Calibri_MSFontService,sans-serif" font-weight="400" font-size="41" transform="matrix(1 0 0 1 3234.14 431)">3,412</text></g><g clip-path="url(#clip21)"><text fill="#404040" font-family="Calibri,Calibri_MSFontService,sans-serif" font-weight="400" font-size="41" transform="matrix(1 0 0 1 3735.19 329)">4,600</text></g><g clip-path="url(#clip22)"><text fill="#404040" font-family="Calibri,Calibri_MSFontService,sans-serif" font-weight="400" font-size="41" transform="matrix(1 0 0 1 3892.8 228)">4,974</text></g><g clip-path="url(#clip23)"><text fill="#595959" font-family="Calibri,Calibri_MSFontService,sans-serif" font-weight="400" font-size="41" transform="matrix(1 0 0 1 1757.66 2152)">0</text></g><g clip-path="url(#clip24)"><text fill="#595959" font-family="Calibri,Calibri_MSFontService,sans-serif" font-weight="400" font-size="41" transform="matrix(1 0 0 1 2179.29 2152)">1</text></g><g clip-path="url(#clip25)"><text fill="#595959" font-family="Calibri,Calibri_MSFontService,sans-serif" font-weight="400" font-size="41" transform="matrix(1 0 0 1 2600.92 2152)">2</text></g><g clip-path="url(#clip26)"><text fill="#595959" font-family="Calibri,Calibri_MSFontService,sans-serif" font-weight="400" font-size="41" transform="matrix(1 0 0 1 3022.55 2152)">3</text></g><g clip-path="url(#clip27)"><text fill="#595959" font-family="Calibri,Calibri_MSFontService,sans-serif" font-weight="400" font-size="41" transform="matrix(1 0 0 1 3444.17 2152)">4</text></g><g clip-path="url(#clip28)"><text fill="#595959" font-family="Calibri,Calibri_MSFontService,sans-serif" font-weight="400" font-size="41" transform="matrix(1 0 0 1 3865.8 2152)">5</text></g><g clip-path="url(#clip29)"><text fill="#595959" font-family="Calibri,Calibri_MSFontService,sans-serif" font-weight="400" font-size="41" transform="matrix(1 0 0 1 4287.43 2152)">6</text></g><g clip-path="url(#clip30)"><text fill="#595959" font-family="Calibri,Calibri_MSFontService,sans-serif" font-weight="400" font-size="41" transform="matrix(1 0 0 1 1557.32 2048)">TreeInsert</text></g><g clip-path="url(#clip31)"><text fill="#595959" font-family="Calibri,Calibri_MSFontService,sans-serif" font-weight="400" font-size="41" transform="matrix(1 0 0 1 1699.06 1947)">Pi</text></g><g clip-path="url(#clip32)"><text fill="#595959" font-family="Calibri,Calibri_MSFontService,sans-serif" font-weight="400" font-size="41" transform="matrix(1 0 0 1 1573.27 1845)">HeapSort</text></g><g clip-path="url(#clip33)"><text fill="#595959" font-family="Calibri,Calibri_MSFontService,sans-serif" font-weight="400" font-size="41" transform="matrix(1 0 0 1 1617.85 1744)">Array1</text></g><g clip-path="url(#clip34)"><text fill="#595959" font-family="Calibri,Calibri_MSFontService,sans-serif" font-weight="400" font-size="41" transform="matrix(1 0 0 1 1565.85 1643)">QuickSort</text></g><g clip-path="url(#clip35)"><text fill="#595959" font-family="Calibri,Calibri_MSFontService,sans-serif" font-weight="400" font-size="41" transform="matrix(1 0 0 1 1679.75 1542)">Fib</text></g><g clip-path="url(#clip36)"><text fill="#595959" font-family="Calibri,Calibri_MSFontService,sans-serif" font-weight="400" font-size="41" transform="matrix(1 0 0 1 1543.46 1441)">BubbleSort</text></g><g clip-path="url(#clip37)"><text fill="#595959" font-family="Calibri,Calibri_MSFontService,sans-serif" font-weight="400" font-size="41" transform="matrix(1 0 0 1 1522.56 1339)">BubbleSort2</text></g><g clip-path="url(#clip38)"><text fill="#595959" font-family="Calibri,Calibri_MSFontService,sans-serif" font-weight="400" font-size="41" transform="matrix(1 0 0 1 1619.73 1238)">CSieve</text></g><g clip-path="url(#clip39)"><text fill="#595959" font-family="Calibri,Calibri_MSFontService,sans-serif" font-weight="400" font-size="41" transform="matrix(1 0 0 1 1432.29 1137)">fannkuch-redux-2</text></g><g clip-path="url(#clip40)"><text fill="#595959" font-family="Calibri,Calibri_MSFontService,sans-serif" font-weight="400" font-size="41" transform="matrix(1 0 0 1 1472.33 1036)">spectralnorm-1</text></g><g clip-path="url(#clip41)"><text fill="#595959" font-family="Calibri,Calibri_MSFontService,sans-serif" font-weight="400" font-size="41" transform="matrix(1 0 0 1 1589.38 934)">MatInv4</text></g><g clip-path="url(#clip42)"><text fill="#595959" font-family="Calibri,Calibri_MSFontService,sans-serif" font-weight="400" font-size="41" transform="matrix(1 0 0 1 1586.7 833)">8queens</text></g><g clip-path="url(#clip43)"><text fill="#595959" font-family="Calibri,Calibri_MSFontService,sans-serif" font-weight="400" font-size="41" transform="matrix(1 0 0 1 1551.05 732)">Permutate</text></g><g clip-path="url(#clip44)"><text fill="#595959" font-family="Calibri,Calibri_MSFontService,sans-serif" font-weight="400" font-size="41" transform="matrix(1 0 0 1 1538.79 631)">Ackermann</text></g><g clip-path="url(#clip45)"><text fill="#595959" font-family="Calibri,Calibri_MSFontService,sans-serif" font-weight="400" font-size="41" transform="matrix(1 0 0 1 1585.37 530)">TreeSort</text></g><g clip-path="url(#clip46)"><text fill="#595959" font-family="Calibri,Calibri_MSFontService,sans-serif" font-weight="400" font-size="41" transform="matrix(1 0 0 1 1505.26 428)">binarytrees-2</text></g><g clip-path="url(#clip47)"><text fill="#595959" font-family="Calibri,Calibri_MSFontService,sans-serif" font-weight="400" font-size="41" transform="matrix(1 0 0 1 1617.85 327)">Lorenz</text></g><g clip-path="url(#clip48)"><text fill="#595959" font-family="Calibri,Calibri_MSFontService,sans-serif" font-weight="400" font-size="41" transform="matrix(1 0 0 1 1578.22 226)">n-body-3</text></g><rect x="1402.5" y="113.5" width="2957" height="2080" stroke="#D9D9D9" stroke-width="3.4375" stroke-linejoin="round" stroke-miterlimit="10" fill="none"/></g></svg>