<?xml version="1.0" encoding="UTF-8" standalone="no"?>
<!DOCTYPE svg PUBLIC "-//W3C//DTD SVG 1.1//EN"
 "http://www.w3.org/Graphics/SVG/1.1/DTD/svg11.dtd">
<!-- Generated by graphviz version 2.40.1 (20161225.0304)
 -->
<!-- Title: G Pages: 1 -->
<svg width="211pt" height="212pt"
     viewBox="0.00 0.00 211.00 212.00" xmlns="http://www.w3.org/2000/svg">
<g id="graph0" class="graph" transform="scale(1 1) rotate(0) translate(4 208)">
<title>G</title>
<polygon fill="#ffffff" stroke="transparent" points="-4,4 -4,-208 207,-208 207,4 -4,4"/>
<!-- node0 -->
<g id="node1" class="node">
<title>node0</title>
<polygon fill="#e98693" stroke="#000000" points="86,-204 27,-204 27,-168 86,-168 86,-204"/>
<text text-anchor="middle" x="56.5" y="-182.3" font-family="Arial" font-size="14.00" fill="#1a1919">0 Start</text>
</g>
<!-- node712 -->
<g id="node3" class="node">
<title>node712</title>
<polygon fill="#f9f9f9" stroke="#000000" points="203,-123 0,-123 0,-87 203,-87 203,-123"/>
<text text-anchor="middle" x="101.5" y="-101.3" font-family="Arial" font-size="14.00" fill="#1a1919">712 BoxNode$AllocatingBox</text>
</g>
<!-- node0&#45;&gt;node712 -->
<g id="edge1" class="edge">
<title>node0&#45;&gt;node712</title>
<path fill="none" stroke="#da2d4f" stroke-width="2" d="M66.7112,-167.6198C72.5632,-157.0863 80.015,-143.6729 86.5195,-131.9649"/>
<polygon fill="#da2d4f" stroke="#da2d4f" stroke-width="2" points="89.6873,-133.4697 91.4842,-123.0284 83.5682,-130.0702 89.6873,-133.4697"/>
</g>
<!-- node691 -->
<g id="node2" class="node">
<title>node691</title>
<polygon fill="#e98693" stroke="#000000" points="146,-36 57,-36 57,0 146,0 146,-36"/>
<text text-anchor="middle" x="101.5" y="-14.3" font-family="Arial" font-size="14.00" fill="#1a1919">691 Return</text>
</g>
<!-- node712&#45;&gt;node691 -->
<g id="edge2" class="edge">
<title>node712&#45;&gt;node691</title>
<path fill="none" stroke="#3cb4a4" d="M85.4953,-86.6282C79.1579,-77.1473 74.0972,-65.2388 77.5,-54 78.4067,-51.0052 79.6539,-48.0319 81.1066,-45.1523"/>
<polygon fill="#3cb4a4" stroke="#3cb4a4" points="84.2244,-46.7551 86.2822,-36.362 78.1924,-43.2034 84.2244,-46.7551"/>
<text text-anchor="middle" x="95.5" y="-57.8" font-family="arial" font-size="14.00" fill="#3cb4a4">result</text>
</g>
<!-- node712&#45;&gt;node691 -->
<g id="edge4" class="edge">
<title>node712&#45;&gt;node691</title>
<path fill="none" stroke="#da2d4f" stroke-width="2" d="M108.7692,-86.9725C110.7063,-81.3148 112.5291,-74.9828 113.5,-69 114.7221,-61.4693 113.8552,-53.3986 112.137,-45.9502"/>
<polygon fill="#da2d4f" stroke="#da2d4f" stroke-width="2" points="115.4901,-44.9454 109.3826,-36.2881 108.7583,-46.8645 115.4901,-44.9454"/>
</g>
<!-- inline715x712 -->
<g id="node4" class="node">
<title>inline715x712</title>
<ellipse fill="#d7ede7" stroke="#000000" cx="147.5" cy="-186" rx="43.219" ry="18"/>
<text text-anchor="middle" x="147.5" y="-184.1" font-family="Arial" font-size="8.00" fill="#1a1919">715 C(1048576)</text>
</g>
<!-- inline715x712&#45;&gt;node712 -->
<g id="edge3" class="edge">
<title>inline715x712&#45;&gt;node712</title>
<path fill="none" stroke="#3cb4a4" d="M137.5187,-168.4242C129.9086,-155.0239 119.4634,-136.6311 111.7803,-123.1024"/>
<text text-anchor="middle" x="135.5" y="-143.6" font-family="arial" font-size="8.00" fill="#3cb4a4">value</text>
</g>
</g>
</svg>
