<svg width="2899" height="1728" xmlns="http://www.w3.org/2000/svg" xml:space="preserve" overflow="hidden"><defs><clipPath id="clip0"><rect x="2149" y="350" width="2899" height="1728"/></clipPath><clipPath id="clip1"><rect x="2150" y="350" width="2896" height="1726"/></clipPath><clipPath id="clip2"><rect x="2150" y="350" width="2896" height="1726"/></clipPath><clipPath id="clip3"><rect x="2399" y="401" width="2600" height="1475"/></clipPath><clipPath id="clip4"><rect x="2150" y="350" width="2896" height="1726"/></clipPath><clipPath id="clip5"><rect x="2150" y="350" width="2896" height="1726"/></clipPath><clipPath id="clip6"><rect x="2150" y="350" width="2896" height="1726"/></clipPath><clipPath id="clip7"><rect x="2150" y="350" width="2896" height="1726"/></clipPath><clipPath id="clip8"><rect x="2150" y="350" width="2896" height="1726"/></clipPath><clipPath id="clip9"><rect x="2150" y="350" width="2896" height="1726"/></clipPath><clipPath id="clip10"><rect x="2150" y="350" width="2896" height="1726"/></clipPath><clipPath id="clip11"><rect x="2150" y="350" width="2896" height="1726"/></clipPath><clipPath id="clip12"><rect x="2150" y="350" width="2896" height="1726"/></clipPath><clipPath id="clip13"><rect x="2150" y="350" width="2896" height="1726"/></clipPath><clipPath id="clip14"><rect x="2150" y="350" width="2896" height="1726"/></clipPath><clipPath id="clip15"><rect x="2150" y="350" width="2896" height="1726"/></clipPath><clipPath id="clip16"><rect x="2150" y="350" width="2896" height="1726"/></clipPath><clipPath id="clip17"><rect x="2150" y="350" width="2896" height="1726"/></clipPath><clipPath id="clip18"><rect x="2150" y="350" width="2896" height="1726"/></clipPath><clipPath id="clip19"><rect x="2150" y="350" width="2896" height="1726"/></clipPath><clipPath id="clip20"><rect x="2150" y="350" width="2896" height="1726"/></clipPath><clipPath id="clip21"><rect x="2150" y="350" width="2896" height="1726"/></clipPath><clipPath id="clip22"><rect x="2150" y="350" width="2896" height="1726"/></clipPath><clipPath id="clip23"><rect x="2150" y="350" width="2896" height="1726"/></clipPath><clipPath id="clip24"><rect x="2150" y="350" width="2896" height="1726"/></clipPath><clipPath id="clip25"><rect x="2150" y="350" width="2896" height="1726"/></clipPath><clipPath id="clip26"><rect x="2150" y="350" width="2896" height="1726"/></clipPath><clipPath id="clip27"><rect x="2150" y="350" width="2896" height="1726"/></clipPath><clipPath id="clip28"><rect x="2150" y="350" width="2896" height="1726"/></clipPath><clipPath id="clip29"><rect x="2150" y="350" width="2896" height="1726"/></clipPath><clipPath id="clip30"><rect x="2150" y="350" width="2896" height="1726"/></clipPath><clipPath id="clip31"><rect x="2150" y="350" width="2896" height="1726"/></clipPath><clipPath id="clip32"><rect x="2150" y="350" width="2896" height="1726"/></clipPath><clipPath id="clip33"><rect x="2150" y="350" width="2896" height="1726"/></clipPath><clipPath id="clip34"><rect x="2150" y="350" width="2896" height="1726"/></clipPath><clipPath id="clip35"><rect x="2150" y="350" width="2896" height="1726"/></clipPath><clipPath id="clip36"><rect x="2150" y="350" width="2896" height="1726"/></clipPath><clipPath id="clip37"><rect x="2150" y="350" width="2896" height="1726"/></clipPath><clipPath id="clip38"><rect x="2150" y="350" width="2896" height="1726"/></clipPath><clipPath id="clip39"><rect x="2150" y="350" width="2896" height="1726"/></clipPath><clipPath id="clip40"><rect x="2150" y="350" width="2896" height="1726"/></clipPath><clipPath id="clip41"><rect x="2150" y="350" width="2896" height="1726"/></clipPath><clipPath id="clip42"><rect x="2150" y="350" width="2896" height="1726"/></clipPath><clipPath id="clip43"><rect x="2150" y="350" width="2896" height="1726"/></clipPath><clipPath id="clip44"><rect x="2150" y="350" width="2896" height="1726"/></clipPath><clipPath id="clip45"><rect x="2150" y="350" width="2896" height="1726"/></clipPath><clipPath id="clip46"><rect x="2150" y="350" width="2896" height="1726"/></clipPath><clipPath id="clip47"><rect x="2150" y="350" width="2896" height="1726"/></clipPath><clipPath id="clip48"><rect x="2150" y="350" width="2896" height="1726"/></clipPath><clipPath id="clip49"><rect x="2150" y="350" width="2896" height="1726"/></clipPath><clipPath id="clip50"><rect x="2150" y="350" width="2896" height="1726"/></clipPath><clipPath id="clip51"><rect x="2150" y="350" width="2896" height="1726"/></clipPath><clipPath id="clip52"><rect x="2150" y="350" width="2896" height="1726"/></clipPath><clipPath id="clip53"><rect x="2150" y="350" width="2896" height="1726"/></clipPath><clipPath id="clip54"><rect x="2150" y="350" width="2896" height="1726"/></clipPath><clipPath id="clip55"><rect x="2150" y="350" width="2896" height="1726"/></clipPath><clipPath id="clip56"><rect x="2150" y="350" width="2896" height="1726"/></clipPath><clipPath id="clip57"><rect x="2150" y="350" width="2896" height="1726"/></clipPath><clipPath id="clip58"><rect x="2150" y="350" width="2896" height="1726"/></clipPath><clipPath id="clip59"><rect x="2150" y="350" width="2896" height="1726"/></clipPath><clipPath id="clip60"><rect x="2150" y="350" width="2896" height="1726"/></clipPath><clipPath id="clip61"><rect x="2150" y="350" width="2896" height="1726"/></clipPath><clipPath id="clip62"><rect x="2150" y="350" width="2896" height="1726"/></clipPath><clipPath id="clip63"><rect x="2150" y="350" width="2896" height="1726"/></clipPath><clipPath id="clip64"><rect x="2150" y="350" width="2896" height="1726"/></clipPath><clipPath id="clip65"><rect x="2150" y="350" width="2896" height="1726"/></clipPath><clipPath id="clip66"><rect x="2150" y="350" width="2896" height="1726"/></clipPath></defs><g clip-path="url(#clip0)" transform="translate(-2149 -350)"><rect x="2150" y="351" width="2896" height="1725" fill="#FFFFFF"/><g clip-path="url(#clip1)"><path d="M2399.5 1725.56 4995.5 1725.56M2399.5 1578.55 4995.5 1578.55M2399.5 1431.55 4995.5 1431.55M2399.5 1284.54 4995.5 1284.54M2399.5 1136.54 4995.5 1136.54M2399.5 989.533 4995.5 989.533M2399.5 842.528 4995.5 842.528M2399.5 695.523 4995.5 695.523M2399.5 548.518 4995.5 548.518M2399.5 401.5 4995.5 401.5" stroke="#D9D9D9" stroke-width="3.4375" stroke-linejoin="round" stroke-miterlimit="10" fill="none"/></g><g clip-path="url(#clip2)"><path d="M2399.5 1872.5 4995.5 1872.5" stroke="#D9D9D9" stroke-width="3.4375" stroke-linejoin="round" stroke-miterlimit="10" fill="none" fill-rule="evenodd"/></g><g clip-path="url(#clip3)"><path d="M2425 538 2477.08 1041.03 2529.08 1073.04 2581.08 1090.04 2633.09 1112.04 2685.09 1094.04 2737.09 1095.04 2788.09 1054.03 2840.09 1059.03 2892.09 1091.04 2944.1 1069.04 2996.1 1102.04 3048.1 1247.04 3100.1 1471.05 3152.1 1477.05 3204.11 1457.05 3256.11 1469.05 3308.11 1469.05 3360.11 1487.05 3412.11 1492.05 3464.11 1482.05 3516.12 1469.05 3567.12 1470.05 3619.12 1469.05 3671.12 1396.05 3723.12 1427.05 3775.12 1857 3827.13 1857.06 3879.13 1854.06 3931.13 1856.06 3983.13 1856.06 4035.13 1857.06 4087.13 1857.06 4139.14 1853.06 4191.14 1856.06 4243.14 1856.06 4295.14 1857.06 4346.14 1854.06 4398.14 1855.06 4450.15 1846.06 4502.15 1851.06 4554.15 1855.06 4606.15 1855.06 4658.15 1853.06 4710.15 1854.06 4762.16 1855.06 4814.16 1855.06 4866.16 1855.06 4918.16 1856.06 4970 1856.06" stroke="#5B9BD5" stroke-width="10.3125" stroke-linecap="round" stroke-linejoin="round" stroke-miterlimit="10" fill="none"/></g><g clip-path="url(#clip4)"><text fill="#595959" font-family="Calibri,Calibri_MSFontService,sans-serif" font-weight="400" font-size="41" transform="matrix(1 0 0 1 2339.84 1884)">0</text></g><g clip-path="url(#clip5)"><text fill="#595959" font-family="Calibri,Calibri_MSFontService,sans-serif" font-weight="400" font-size="41" transform="matrix(1 0 0 1 2298.04 1737)">100</text></g><g clip-path="url(#clip6)"><text fill="#595959" font-family="Calibri,Calibri_MSFontService,sans-serif" font-weight="400" font-size="41" transform="matrix(1 0 0 1 2298.04 1590)">200</text></g><g clip-path="url(#clip7)"><text fill="#595959" font-family="Calibri,Calibri_MSFontService,sans-serif" font-weight="400" font-size="41" transform="matrix(1 0 0 1 2298.04 1443)">300</text></g><g clip-path="url(#clip8)"><text fill="#595959" font-family="Calibri,Calibri_MSFontService,sans-serif" font-weight="400" font-size="41" transform="matrix(1 0 0 1 2298.04 1296)">400</text></g><g clip-path="url(#clip9)"><text fill="#595959" font-family="Calibri,Calibri_MSFontService,sans-serif" font-weight="400" font-size="41" transform="matrix(1 0 0 1 2298.04 1148)">500</text></g><g clip-path="url(#clip10)"><text fill="#595959" font-family="Calibri,Calibri_MSFontService,sans-serif" font-weight="400" font-size="41" transform="matrix(1 0 0 1 2298.04 1001)">600</text></g><g clip-path="url(#clip11)"><text fill="#595959" font-family="Calibri,Calibri_MSFontService,sans-serif" font-weight="400" font-size="41" transform="matrix(1 0 0 1 2298.04 854)">700</text></g><g clip-path="url(#clip12)"><text fill="#595959" font-family="Calibri,Calibri_MSFontService,sans-serif" font-weight="400" font-size="41" transform="matrix(1 0 0 1 2298.04 707)">800</text></g><g clip-path="url(#clip13)"><text fill="#595959" font-family="Calibri,Calibri_MSFontService,sans-serif" font-weight="400" font-size="41" transform="matrix(1 0 0 1 2298.04 560)">900</text></g><g clip-path="url(#clip14)"><text fill="#595959" font-family="Calibri,Calibri_MSFontService,sans-serif" font-weight="400" font-size="41" transform="matrix(1 0 0 1 2277.14 413)">1000</text></g><g clip-path="url(#clip15)"><text fill="#595959" font-family="Calibri,Calibri_MSFontService,sans-serif" font-weight="400" font-size="41" transform="matrix(1 0 0 1 2414.52 1938)">1</text></g><g clip-path="url(#clip16)"><text fill="#595959" font-family="Calibri,Calibri_MSFontService,sans-serif" font-weight="400" font-size="41" transform="matrix(1 0 0 1 2466.46 1938)">2</text></g><g clip-path="url(#clip17)"><text fill="#595959" font-family="Calibri,Calibri_MSFontService,sans-serif" font-weight="400" font-size="41" transform="matrix(1 0 0 1 2518.4 1938)">3</text></g><g clip-path="url(#clip18)"><text fill="#595959" font-family="Calibri,Calibri_MSFontService,sans-serif" font-weight="400" font-size="41" transform="matrix(1 0 0 1 2570.33 1938)">4</text></g><g clip-path="url(#clip19)"><text fill="#595959" font-family="Calibri,Calibri_MSFontService,sans-serif" font-weight="400" font-size="41" transform="matrix(1 0 0 1 2622.27 1938)">5</text></g><g clip-path="url(#clip20)"><text fill="#595959" font-family="Calibri,Calibri_MSFontService,sans-serif" font-weight="400" font-size="41" transform="matrix(1 0 0 1 2674.2 1938)">6</text></g><g clip-path="url(#clip21)"><text fill="#595959" font-family="Calibri,Calibri_MSFontService,sans-serif" font-weight="400" font-size="41" transform="matrix(1 0 0 1 2726.14 1938)">7</text></g><g clip-path="url(#clip22)"><text fill="#595959" font-family="Calibri,Calibri_MSFontService,sans-serif" font-weight="400" font-size="41" transform="matrix(1 0 0 1 2778.08 1938)">8</text></g><g clip-path="url(#clip23)"><text fill="#595959" font-family="Calibri,Calibri_MSFontService,sans-serif" font-weight="400" font-size="41" transform="matrix(1 0 0 1 2830.01 1938)">9</text></g><g clip-path="url(#clip24)"><text fill="#595959" font-family="Calibri,Calibri_MSFontService,sans-serif" font-weight="400" font-size="41" transform="matrix(1 0 0 1 2871.5 1938)">10</text></g><g clip-path="url(#clip25)"><text fill="#595959" font-family="Calibri,Calibri_MSFontService,sans-serif" font-weight="400" font-size="41" transform="matrix(1 0 0 1 2923.44 1938)">11</text></g><g clip-path="url(#clip26)"><text fill="#595959" font-family="Calibri,Calibri_MSFontService,sans-serif" font-weight="400" font-size="41" transform="matrix(1 0 0 1 2975.37 1938)">12</text></g><g clip-path="url(#clip27)"><text fill="#595959" font-family="Calibri,Calibri_MSFontService,sans-serif" font-weight="400" font-size="41" transform="matrix(1 0 0 1 3027.31 1938)">13</text></g><g clip-path="url(#clip28)"><text fill="#595959" font-family="Calibri,Calibri_MSFontService,sans-serif" font-weight="400" font-size="41" transform="matrix(1 0 0 1 3079.25 1938)">14</text></g><g clip-path="url(#clip29)"><text fill="#595959" font-family="Calibri,Calibri_MSFontService,sans-serif" font-weight="400" font-size="41" transform="matrix(1 0 0 1 3131.18 1938)">15</text></g><g clip-path="url(#clip30)"><text fill="#595959" font-family="Calibri,Calibri_MSFontService,sans-serif" font-weight="400" font-size="41" transform="matrix(1 0 0 1 3183.12 1938)">16</text></g><g clip-path="url(#clip31)"><text fill="#595959" font-family="Calibri,Calibri_MSFontService,sans-serif" font-weight="400" font-size="41" transform="matrix(1 0 0 1 3235.06 1938)">17</text></g><g clip-path="url(#clip32)"><text fill="#595959" font-family="Calibri,Calibri_MSFontService,sans-serif" font-weight="400" font-size="41" transform="matrix(1 0 0 1 3286.99 1938)">18</text></g><g clip-path="url(#clip33)"><text fill="#595959" font-family="Calibri,Calibri_MSFontService,sans-serif" font-weight="400" font-size="41" transform="matrix(1 0 0 1 3338.93 1938)">19</text></g><g clip-path="url(#clip34)"><text fill="#595959" font-family="Calibri,Calibri_MSFontService,sans-serif" font-weight="400" font-size="41" transform="matrix(1 0 0 1 3390.87 1938)">20</text></g><g clip-path="url(#clip35)"><text fill="#595959" font-family="Calibri,Calibri_MSFontService,sans-serif" font-weight="400" font-size="41" transform="matrix(1 0 0 1 3442.8 1938)">21</text></g><g clip-path="url(#clip36)"><text fill="#595959" font-family="Calibri,Calibri_MSFontService,sans-serif" font-weight="400" font-size="41" transform="matrix(1 0 0 1 3494.74 1938)">22</text></g><g clip-path="url(#clip37)"><text fill="#595959" font-family="Calibri,Calibri_MSFontService,sans-serif" font-weight="400" font-size="41" transform="matrix(1 0 0 1 3546.68 1938)">23</text></g><g clip-path="url(#clip38)"><text fill="#595959" font-family="Calibri,Calibri_MSFontService,sans-serif" font-weight="400" font-size="41" transform="matrix(1 0 0 1 3598.61 1938)">24</text></g><g clip-path="url(#clip39)"><text fill="#595959" font-family="Calibri,Calibri_MSFontService,sans-serif" font-weight="400" font-size="41" transform="matrix(1 0 0 1 3650.55 1938)">25</text></g><g clip-path="url(#clip40)"><text fill="#595959" font-family="Calibri,Calibri_MSFontService,sans-serif" font-weight="400" font-size="41" transform="matrix(1 0 0 1 3702.49 1938)">26</text></g><g clip-path="url(#clip41)"><text fill="#595959" font-family="Calibri,Calibri_MSFontService,sans-serif" font-weight="400" font-size="41" transform="matrix(1 0 0 1 3754.42 1938)">27</text></g><g clip-path="url(#clip42)"><text fill="#595959" font-family="Calibri,Calibri_MSFontService,sans-serif" font-weight="400" font-size="41" transform="matrix(1 0 0 1 3806.36 1938)">28</text></g><g clip-path="url(#clip43)"><text fill="#595959" font-family="Calibri,Calibri_MSFontService,sans-serif" font-weight="400" font-size="41" transform="matrix(1 0 0 1 3858.3 1938)">29</text></g><g clip-path="url(#clip44)"><text fill="#595959" font-family="Calibri,Calibri_MSFontService,sans-serif" font-weight="400" font-size="41" transform="matrix(1 0 0 1 3910.23 1938)">30</text></g><g clip-path="url(#clip45)"><text fill="#595959" font-family="Calibri,Calibri_MSFontService,sans-serif" font-weight="400" font-size="41" transform="matrix(1 0 0 1 3962.17 1938)">31</text></g><g clip-path="url(#clip46)"><text fill="#595959" font-family="Calibri,Calibri_MSFontService,sans-serif" font-weight="400" font-size="41" transform="matrix(1 0 0 1 4014.11 1938)">32</text></g><g clip-path="url(#clip47)"><text fill="#595959" font-family="Calibri,Calibri_MSFontService,sans-serif" font-weight="400" font-size="41" transform="matrix(1 0 0 1 4066.04 1938)">33</text></g><g clip-path="url(#clip48)"><text fill="#595959" font-family="Calibri,Calibri_MSFontService,sans-serif" font-weight="400" font-size="41" transform="matrix(1 0 0 1 4117.98 1938)">34</text></g><g clip-path="url(#clip49)"><text fill="#595959" font-family="Calibri,Calibri_MSFontService,sans-serif" font-weight="400" font-size="41" transform="matrix(1 0 0 1 4169.92 1938)">35</text></g><g clip-path="url(#clip50)"><text fill="#595959" font-family="Calibri,Calibri_MSFontService,sans-serif" font-weight="400" font-size="41" transform="matrix(1 0 0 1 4221.85 1938)">36</text></g><g clip-path="url(#clip51)"><text fill="#595959" font-family="Calibri,Calibri_MSFontService,sans-serif" font-weight="400" font-size="41" transform="matrix(1 0 0 1 4273.79 1938)">37</text></g><g clip-path="url(#clip52)"><text fill="#595959" font-family="Calibri,Calibri_MSFontService,sans-serif" font-weight="400" font-size="41" transform="matrix(1 0 0 1 4325.73 1938)">38</text></g><g clip-path="url(#clip53)"><text fill="#595959" font-family="Calibri,Calibri_MSFontService,sans-serif" font-weight="400" font-size="41" transform="matrix(1 0 0 1 4377.66 1938)">39</text></g><g clip-path="url(#clip54)"><text fill="#595959" font-family="Calibri,Calibri_MSFontService,sans-serif" font-weight="400" font-size="41" transform="matrix(1 0 0 1 4429.6 1938)">40</text></g><g clip-path="url(#clip55)"><text fill="#595959" font-family="Calibri,Calibri_MSFontService,sans-serif" font-weight="400" font-size="41" transform="matrix(1 0 0 1 4481.54 1938)">41</text></g><g clip-path="url(#clip56)"><text fill="#595959" font-family="Calibri,Calibri_MSFontService,sans-serif" font-weight="400" font-size="41" transform="matrix(1 0 0 1 4533.47 1938)">42</text></g><g clip-path="url(#clip57)"><text fill="#595959" font-family="Calibri,Calibri_MSFontService,sans-serif" font-weight="400" font-size="41" transform="matrix(1 0 0 1 4585.41 1938)">43</text></g><g clip-path="url(#clip58)"><text fill="#595959" font-family="Calibri,Calibri_MSFontService,sans-serif" font-weight="400" font-size="41" transform="matrix(1 0 0 1 4637.34 1938)">44</text></g><g clip-path="url(#clip59)"><text fill="#595959" font-family="Calibri,Calibri_MSFontService,sans-serif" font-weight="400" font-size="41" transform="matrix(1 0 0 1 4689.28 1938)">45</text></g><g clip-path="url(#clip60)"><text fill="#595959" font-family="Calibri,Calibri_MSFontService,sans-serif" font-weight="400" font-size="41" transform="matrix(1 0 0 1 4741.22 1938)">46</text></g><g clip-path="url(#clip61)"><text fill="#595959" font-family="Calibri,Calibri_MSFontService,sans-serif" font-weight="400" font-size="41" transform="matrix(1 0 0 1 4793.15 1938)">47</text></g><g clip-path="url(#clip62)"><text fill="#595959" font-family="Calibri,Calibri_MSFontService,sans-serif" font-weight="400" font-size="41" transform="matrix(1 0 0 1 4845.09 1938)">48</text></g><g clip-path="url(#clip63)"><text fill="#595959" font-family="Calibri,Calibri_MSFontService,sans-serif" font-weight="400" font-size="41" transform="matrix(1 0 0 1 4897.03 1938)">49</text></g><g clip-path="url(#clip64)"><text fill="#595959" font-family="Calibri,Calibri_MSFontService,sans-serif" font-weight="400" font-size="41" transform="matrix(1 0 0 1 4948.96 1938)">50</text></g><g clip-path="url(#clip65)"><text fill="#595959" font-family="Calibri,Calibri_MSFontService,sans-serif" font-weight="400" font-size="46" transform="matrix(6.12323e-17 -1 1 6.12323e-17 2251.45 1253)">Milliseconds</text></g><g clip-path="url(#clip66)"><text fill="#595959" font-family="Calibri,Calibri_MSFontService,sans-serif" font-weight="400" font-size="46" transform="matrix(1 0 0 1 3616.53 2007)">Iteration</text></g><rect x="2150.5" y="351.5" width="2896" height="1725" stroke="#D9D9D9" stroke-width="3.4375" stroke-linejoin="round" stroke-miterlimit="10" fill="none"/></g></svg>